<?xml version="1.0" standalone="no"?>
<!DOCTYPE svg PUBLIC "-//W3C//DTD SVG 20010904//EN"
 "http://www.w3.org/TR/2001/REC-SVG-20010904/DTD/svg10.dtd">
<svg version="1.0" xmlns="http://www.w3.org/2000/svg"
 width="225.000000pt" height="225.000000pt" viewBox="0 0 225.000000 225.000000"
 preserveAspectRatio="xMidYMid meet">
<metadata>
Created by potrace 1.11, written by Peter Selinger 2001-2013
</metadata>
<g transform="translate(0.000000,225.000000) scale(0.100000,-0.100000)"
fill="#000000" stroke="none">
<path d="M220 1342 l0 -671 58 -6 c272 -31 522 -150 714 -341 l78 -77 0 640 0
639 -23 30 c-181 244 -477 417 -767 450 l-60 7 0 -671z"/>
<path d="M1896 1994 c-276 -54 -518 -207 -689 -435 l-27 -36 0 -638 0 -639 83
80 c187 182 406 292 657 330 52 7 98 14 103 14 4 0 7 301 7 670 l0 670 -32 -1
c-18 0 -64 -7 -102 -15z"/>
<path d="M43 1693 l-43 -15 0 -687 0 -688 87 21 c74 17 122 20 303 20 226 0
297 -10 459 -65 30 -11 56 -17 59 -15 2 3 -33 33 -77 68 -96 76 -226 147 -336
183 -84 27 -240 55 -312 55 -76 0 -73 -27 -73 592 0 432 -3 548 -12 547 -7 0
-32 -7 -55 -16z"/>
<path d="M2140 1162 c0 -466 -2 -551 -15 -569 -12 -17 -29 -22 -102 -27 -236
-19 -462 -111 -626 -255 -32 -28 -55 -51 -52 -51 3 0 41 11 83 25 159 50 233
60 447 59 159 -1 218 -5 288 -21 l87 -19 0 688 0 687 -52 16 c-28 8 -53 15
-55 15 -2 0 -3 -246 -3 -548z"/>
</g>
</svg>
